<svg xmlns="http://www.w3.org/2000/svg" width="800" height="500" viewBox="0 0 800 500">
  <defs>
    <marker id="arrow" viewBox="0 0 10 10" refX="8" refY="5" markerWidth="6" markerHeight="6" orient="auto-start-reverse">
      <path d="M 0 1.5 L 8 5 L 0 8.5 z" fill="#555555" />
    </marker>
  </defs>
  <!-- Background -->
  <rect width="100%" height="100%" fill="#fafafa" />  <rect x="50" y="50" width="190" height="50" rx="6" ry="6" fill="#d5e8d4" stroke="#82b366" stroke-width="2" />
  <text x="145" y="80" font-family="Segoe UI, sans-serif" font-size="12" font-weight="bold" text-anchor="middle" fill="#2c3e50">WS Client Connection</text>
  <rect x="50" y="160" width="190" height="50" rx="6" ry="6" fill="#d5e8d4" stroke="#82b366" stroke-width="2" />
  <text x="145" y="190" font-family="Segoe UI, sans-serif" font-size="12" font-weight="bold" text-anchor="middle" fill="#2c3e50">WS API Gateway (Upgrade)</text>
  <rect x="50" y="270" width="190" height="50" rx="6" ry="6" fill="#ffe6cc" stroke="#d79b00" stroke-width="2" />
  <text x="145" y="300" font-family="Segoe UI, sans-serif" font-size="12" font-weight="bold" text-anchor="middle" fill="#2c3e50">Handshake Token Verify</text>
  <rect x="300" y="160" width="190" height="50" rx="6" ry="6" fill="#d5e8d4" stroke="#82b366" stroke-width="2" />
  <text x="395" y="190" font-family="Segoe UI, sans-serif" font-size="12" font-weight="bold" text-anchor="middle" fill="#2c3e50">Accept &amp; Connection Pool</text>
  <rect x="300" y="270" width="190" height="50" rx="6" ry="6" fill="#ffe6cc" stroke="#d79b00" stroke-width="2" />
  <text x="395" y="300" font-family="Segoe UI, sans-serif" font-size="12" font-weight="bold" text-anchor="middle" fill="#2c3e50">Parse Subscribe Frame</text>
  <rect x="550" y="270" width="190" height="50" rx="6" ry="6" fill="#d5e8d4" stroke="#82b366" stroke-width="2" />
  <text x="645" y="300" font-family="Segoe UI, sans-serif" font-size="12" font-weight="bold" text-anchor="middle" fill="#2c3e50">Listen to Redis Pub/Sub</text>
  <rect x="550" y="160" width="190" height="50" rx="6" ry="6" fill="#d5e8d4" stroke="#82b366" stroke-width="2" />
  <text x="645" y="190" font-family="Segoe UI, sans-serif" font-size="12" font-weight="bold" text-anchor="middle" fill="#2c3e50">Push WS Event Frame</text>
  <line x1="145" y1="100" x2="145" y2="160" stroke="#555555" stroke-width="1.5" marker-end="url(#arrow)" />
  <line x1="145" y1="210" x2="145" y2="270" stroke="#555555" stroke-width="1.5" marker-end="url(#arrow)" />
  <line x1="240" y1="295" x2="300" y2="295" stroke="#555555" stroke-width="1.5" marker-end="url(#arrow)" />
  <text x="270" y="289" font-family="Segoe UI, sans-serif" font-size="10" font-weight="bold" fill="#777777" text-anchor="middle">Valid token</text>
  <line x1="395" y1="270" x2="395" y2="210" stroke="#555555" stroke-width="1.5" marker-end="url(#arrow)" />
  <line x1="490" y1="185" x2="550" y2="185" stroke="#555555" stroke-width="1.5" marker-end="url(#arrow)" />
  <text x="520" y="179" font-family="Segoe UI, sans-serif" font-size="10" font-weight="bold" fill="#777777" text-anchor="middle">Active Client</text>
  <line x1="395" y1="320" x2="645" y2="320" stroke="#555555" stroke-width="1.5" marker-end="url(#arrow)" />
  <text x="520" y="314" font-family="Segoe UI, sans-serif" font-size="10" font-weight="bold" fill="#777777" text-anchor="middle">Channel keys</text>
  <line x1="645" y1="270" x2="645" y2="210" stroke="#555555" stroke-width="1.5" marker-end="url(#arrow)" />
  <line x1="550" y1="185" x2="240" y2="185" stroke="#555555" stroke-width="1.5" marker-end="url(#arrow)" />
  <text x="395" y="179" font-family="Segoe UI, sans-serif" font-size="10" font-weight="bold" fill="#777777" text-anchor="middle">Push Frame</text>
</svg>
