<svg xmlns="http://www.w3.org/2000/svg" width="750" height="900" viewBox="0 0 750 900">
  <defs>
    <marker id="arrow" viewBox="0 0 10 10" refX="8" refY="5" markerWidth="6" markerHeight="6" orient="auto-start-reverse">
      <path d="M 0 1.5 L 8 5 L 0 8.5 z" fill="#555555" />
    </marker>
    <marker id="one-to-many" viewBox="0 0 20 10" refX="18" refY="5" markerWidth="10" markerHeight="6" orient="auto-start-reverse">
      <!-- Crow's foot representation for ER diagram -->
      <path d="M 0 5 L 18 5 M 10 0 L 18 5 L 10 10" fill="none" stroke="#555555" stroke-width="1.5" />
      <circle cx="6" cy="5" r="2" fill="white" stroke="#555555" stroke-width="1.5" />
    </marker>
  </defs>
  <!-- Background -->
  <rect width="100%" height="100%" fill="#fafafa" />  <rect x="100" y="50" width="180" height="50" rx="6" ry="6" fill="#dae8fc" stroke="#6c8ebf" stroke-width="2" />
  <text x="190" y="80" font-family="Segoe UI, sans-serif" font-size="12" font-weight="bold" text-anchor="middle" fill="#2c3e50">Auth Service</text>
  <rect x="100" y="150" width="180" height="50" rx="6" ry="6" fill="#dae8fc" stroke="#6c8ebf" stroke-width="2" />
  <text x="190" y="180" font-family="Segoe UI, sans-serif" font-size="12" font-weight="bold" text-anchor="middle" fill="#2c3e50">Wallet Service</text>
  <rect x="100" y="250" width="180" height="50" rx="6" ry="6" fill="#dae8fc" stroke="#6c8ebf" stroke-width="2" />
  <text x="190" y="280" font-family="Segoe UI, sans-serif" font-size="12" font-weight="bold" text-anchor="middle" fill="#2c3e50">Order Service</text>
  <rect x="100" y="350" width="180" height="50" rx="6" ry="6" fill="#dae8fc" stroke="#6c8ebf" stroke-width="2" />
  <text x="190" y="380" font-family="Segoe UI, sans-serif" font-size="12" font-weight="bold" text-anchor="middle" fill="#2c3e50">Settlement Service</text>
  <rect x="100" y="450" width="180" height="50" rx="6" ry="6" fill="#dae8fc" stroke="#6c8ebf" stroke-width="2" />
  <text x="190" y="480" font-family="Segoe UI, sans-serif" font-size="12" font-weight="bold" text-anchor="middle" fill="#2c3e50">Portfolio Service</text>
  <rect x="100" y="550" width="180" height="50" rx="6" ry="6" fill="#dae8fc" stroke="#6c8ebf" stroke-width="2" />
  <text x="190" y="580" font-family="Segoe UI, sans-serif" font-size="12" font-weight="bold" text-anchor="middle" fill="#2c3e50">Trade Service</text>
  <rect x="100" y="650" width="180" height="50" rx="6" ry="6" fill="#dae8fc" stroke="#6c8ebf" stroke-width="2" />
  <text x="190" y="680" font-family="Segoe UI, sans-serif" font-size="12" font-weight="bold" text-anchor="middle" fill="#2c3e50">Notification Service</text>
  <rect x="100" y="750" width="180" height="50" rx="6" ry="6" fill="#dae8fc" stroke="#6c8ebf" stroke-width="2" />
  <text x="190" y="780" font-family="Segoe UI, sans-serif" font-size="12" font-weight="bold" text-anchor="middle" fill="#2c3e50">Market Service</text>
  <!-- Cylinder: Auth DB -->
  <path d="M 500 55 L 500 95 A 70 10 0 0 0 640 95 L 640 55 A 70 10 0 0 1 500 55 Z" fill="#ffe6cc" stroke="#d79b00" stroke-width="2" />
  <ellipse cx="570" cy="55" rx="70" ry="10" fill="#ffe6cc" stroke="#d79b00" stroke-width="2" />
  <text x="570" y="83" font-family="Segoe UI, sans-serif" font-size="12" font-weight="bold" text-anchor="middle" fill="#2c3e50">Auth DB</text>
  <!-- Cylinder: Wallet DB -->
  <path d="M 500 155 L 500 195 A 70 10 0 0 0 640 195 L 640 155 A 70 10 0 0 1 500 155 Z" fill="#ffe6cc" stroke="#d79b00" stroke-width="2" />
  <ellipse cx="570" cy="155" rx="70" ry="10" fill="#ffe6cc" stroke="#d79b00" stroke-width="2" />
  <text x="570" y="183" font-family="Segoe UI, sans-serif" font-size="12" font-weight="bold" text-anchor="middle" fill="#2c3e50">Wallet DB</text>
  <!-- Cylinder: Order DB -->
  <path d="M 500 255 L 500 295 A 70 10 0 0 0 640 295 L 640 255 A 70 10 0 0 1 500 255 Z" fill="#ffe6cc" stroke="#d79b00" stroke-width="2" />
  <ellipse cx="570" cy="255" rx="70" ry="10" fill="#ffe6cc" stroke="#d79b00" stroke-width="2" />
  <text x="570" y="283" font-family="Segoe UI, sans-serif" font-size="12" font-weight="bold" text-anchor="middle" fill="#2c3e50">Order DB</text>
  <!-- Cylinder: Settlement DB -->
  <path d="M 500 355 L 500 395 A 70 10 0 0 0 640 395 L 640 355 A 70 10 0 0 1 500 355 Z" fill="#ffe6cc" stroke="#d79b00" stroke-width="2" />
  <ellipse cx="570" cy="355" rx="70" ry="10" fill="#ffe6cc" stroke="#d79b00" stroke-width="2" />
  <text x="570" y="383" font-family="Segoe UI, sans-serif" font-size="12" font-weight="bold" text-anchor="middle" fill="#2c3e50">Settlement DB</text>
  <!-- Cylinder: Portfolio DB -->
  <path d="M 500 455 L 500 495 A 70 10 0 0 0 640 495 L 640 455 A 70 10 0 0 1 500 455 Z" fill="#ffe6cc" stroke="#d79b00" stroke-width="2" />
  <ellipse cx="570" cy="455" rx="70" ry="10" fill="#ffe6cc" stroke="#d79b00" stroke-width="2" />
  <text x="570" y="483" font-family="Segoe UI, sans-serif" font-size="12" font-weight="bold" text-anchor="middle" fill="#2c3e50">Portfolio DB</text>
  <!-- Cylinder: Trade DB -->
  <path d="M 500 555 L 500 595 A 70 10 0 0 0 640 595 L 640 555 A 70 10 0 0 1 500 555 Z" fill="#ffe6cc" stroke="#d79b00" stroke-width="2" />
  <ellipse cx="570" cy="555" rx="70" ry="10" fill="#ffe6cc" stroke="#d79b00" stroke-width="2" />
  <text x="570" y="583" font-family="Segoe UI, sans-serif" font-size="12" font-weight="bold" text-anchor="middle" fill="#2c3e50">Trade DB</text>
  <!-- Cylinder: Notification DB -->
  <path d="M 500 655 L 500 695 A 70 10 0 0 0 640 695 L 640 655 A 70 10 0 0 1 500 655 Z" fill="#ffe6cc" stroke="#d79b00" stroke-width="2" />
  <ellipse cx="570" cy="655" rx="70" ry="10" fill="#ffe6cc" stroke="#d79b00" stroke-width="2" />
  <text x="570" y="683" font-family="Segoe UI, sans-serif" font-size="12" font-weight="bold" text-anchor="middle" fill="#2c3e50">Notification DB</text>
  <!-- Cylinder: Market DB -->
  <path d="M 500 755 L 500 795 A 70 10 0 0 0 640 795 L 640 755 A 70 10 0 0 1 500 755 Z" fill="#ffe6cc" stroke="#d79b00" stroke-width="2" />
  <ellipse cx="570" cy="755" rx="70" ry="10" fill="#ffe6cc" stroke="#d79b00" stroke-width="2" />
  <text x="570" y="783" font-family="Segoe UI, sans-serif" font-size="12" font-weight="bold" text-anchor="middle" fill="#2c3e50">Market DB</text>
  <line x1="280" y1="75" x2="490" y2="75" stroke="#555555" stroke-width="1.5" marker-end="url(#arrow)" />
  <text x="385" y="69" font-family="Segoe UI, sans-serif" font-size="10" font-weight="bold" fill="#777777" text-anchor="middle">owns</text>
  <line x1="280" y1="175" x2="490" y2="175" stroke="#555555" stroke-width="1.5" marker-end="url(#arrow)" />
  <text x="385" y="169" font-family="Segoe UI, sans-serif" font-size="10" font-weight="bold" fill="#777777" text-anchor="middle">owns</text>
  <line x1="280" y1="275" x2="490" y2="275" stroke="#555555" stroke-width="1.5" marker-end="url(#arrow)" />
  <text x="385" y="269" font-family="Segoe UI, sans-serif" font-size="10" font-weight="bold" fill="#777777" text-anchor="middle">owns</text>
  <line x1="280" y1="375" x2="490" y2="375" stroke="#555555" stroke-width="1.5" marker-end="url(#arrow)" />
  <text x="385" y="369" font-family="Segoe UI, sans-serif" font-size="10" font-weight="bold" fill="#777777" text-anchor="middle">owns</text>
  <line x1="280" y1="475" x2="490" y2="475" stroke="#555555" stroke-width="1.5" marker-end="url(#arrow)" />
  <text x="385" y="469" font-family="Segoe UI, sans-serif" font-size="10" font-weight="bold" fill="#777777" text-anchor="middle">owns</text>
  <line x1="280" y1="575" x2="490" y2="575" stroke="#555555" stroke-width="1.5" marker-end="url(#arrow)" />
  <text x="385" y="569" font-family="Segoe UI, sans-serif" font-size="10" font-weight="bold" fill="#777777" text-anchor="middle">owns</text>
  <line x1="280" y1="675" x2="490" y2="675" stroke="#555555" stroke-width="1.5" marker-end="url(#arrow)" />
  <text x="385" y="669" font-family="Segoe UI, sans-serif" font-size="10" font-weight="bold" fill="#777777" text-anchor="middle">owns</text>
  <line x1="280" y1="775" x2="490" y2="775" stroke="#555555" stroke-width="1.5" marker-end="url(#arrow)" />
  <text x="385" y="769" font-family="Segoe UI, sans-serif" font-size="10" font-weight="bold" fill="#777777" text-anchor="middle">owns</text>
</svg>
